<svg width="1000" height="1000" viewBox="0 0 1000 1000" fill="none" xmlns="http://www.w3.org/2000/svg">
<path d="M51.0349 369.907C51.5424 312.095 52.8803 253.934 53.9415 196.058C54.1168 186.284 53.1754 176.213 53.5261 166.413C54.0982 150.634 55.9622 137.559 56.0452 121.261C56.1652 98.1286 56.4237 74.5563 55.9439 51.4755C55.6209 36.2907 54.0062 21.2491 54.5507 5.98695C61.49 5.96166 68.5122 6.16817 75.433 5.27478C83.2858 4.2648 91.8307 0.628006 99.6005 0.290877C118.462 -0.5379 138.431 4.03161 157.477 2.45272C186.083 0.0717446 215.446 -0.537906 244.089 0.459435C269.207 1.32614 292.617 6.46596 317.265 8.57582C375.464 13.5471 437.493 11.6704 495.73 10.9961C544.674 10.4272 593.728 8.88627 642.608 11.7224C677.341 13.7409 712.121 11.7083 746.919 11.6704C783.599 11.6311 820.354 15.1133 857.126 14.7636C875.01 14.595 893.142 12.5624 910.988 12.3039C923.63 12.1227 936.31 13.0807 948.98 13.0554C949.017 18.8147 948.942 24.5895 948.961 30.3628C949.016 46.3357 947.355 62.2454 947.457 78.3363C947.521 88.7185 949.117 98.97 949.505 109.288C950.216 128.782 950.4 148.64 951 168.2V191.474C949.846 200.549 950.797 210.129 950.521 219.358C948.352 290.27 946.931 360.82 946.036 431.616C945.648 462.45 943.914 493.22 943.48 524.042C943.36 532.302 945.048 540.806 945.002 548.689C944.937 558.774 943.202 568.081 943.433 579.045C943.479 581 945.002 587.421 943.48 588.159C937.537 587.653 931.53 587.757 925.569 587.809C892.21 588.067 858.76 586.166 825.41 587.097C802.101 587.744 778.514 587.291 754.956 589.246C724.283 591.783 693.287 593.582 662.328 594.865C659.587 594.98 655.37 596.496 652.795 596.34C649.852 596.159 645.007 594.009 641.639 593.57C605.669 589 569.063 591.679 533.01 592.741C493.718 593.905 454.657 595.563 415.199 596.275C414.341 596.288 412.985 595.835 412.44 597H403.886C401.625 596.314 398.395 595.692 396.107 595.563C301.319 590.243 206.393 596.25 111.486 596.055C92.6795 591.266 73.5414 595.732 54.5692 593.478C54.9106 587.77 54.1908 581.958 54.283 576.314C54.4584 564.391 56.0176 552.159 56.1191 540.223C56.3314 515.784 54.5783 491.809 53.0742 467.563C52.1975 453.389 52.1699 439.046 51.0533 424.911C51.1733 406.594 50.8872 388.224 51.0533 369.894L51.0349 369.907Z" fill="#6A9BCC"/>
<path d="M729.066 414C740.113 414.694 751.584 423.732 754.125 434.618L758.774 424.796C769.109 414.216 789.429 414.315 800.044 424.327C802.459 426.607 806.738 431.644 808.658 434.375C814.073 442.061 816.822 452.343 819.948 461.138C821.525 459.967 821.165 457.074 821.651 455.236C824.471 444.666 830.536 434.356 842.025 431.905C879.509 423.885 881.293 461.598 887.772 487.858C897.512 527.337 904.046 567.437 912.903 607.079C919.256 635.501 922.598 659.543 925.247 688.614C928.356 722.659 939.809 755.109 944.558 788.415C944.927 791.029 945.766 796.219 945.946 798.643C946.288 803.176 945.017 809.629 941.989 813.125C941.521 813.666 940.575 813.629 940.07 814.161C938.602 815.72 937.818 817.909 935.106 817.999C933.997 818.036 928.591 816.116 927.68 815.432C919.183 809.115 918.481 796.94 917.237 787.28C913.29 756.641 911.893 725.462 905.352 695.129C900.522 672.7 897.378 657.344 895.08 634.212C890.484 587.92 887.529 543.287 877.752 497.364C875.418 486.398 870.904 463.671 865.542 454.587C863.254 450.721 858.775 445.513 854.018 445.495C844.052 445.468 836.429 452.56 835.861 462.463C834.672 482.982 840.925 508.971 844.854 529.283C848.873 550.099 855.667 568.897 859.604 589.659C860.614 594.958 863.65 607.655 863.668 612.143C863.668 613.026 862.244 618.82 861.794 619.586C860.74 621.398 859.659 620.92 858.686 621.921C858.334 622.272 858.722 623.02 858.65 623.092C858.199 623.524 850.729 626.137 849.765 626.011C849.26 625.948 845.809 624.065 845.241 623.659C834.771 615.991 832.861 594.129 830.797 582.126C824.472 545.377 815.947 508.737 804.08 473.34C800.359 462.229 793.952 439.538 783.211 433.807C779.787 431.987 778.021 431.942 774.245 432.924C765.622 435.159 766.037 443.071 765.425 450.622C764.271 464.797 766.506 476.557 767.866 490.389C768.722 499.103 768.109 504.276 770.479 513.306C774.705 529.4 778.381 545.395 781.373 561.805C784.5 578.882 788.834 600.23 790.033 617C790.258 620.199 791.015 623.245 788.519 626.39C787.266 627.976 780.003 631.842 777.724 632.292C776.552 632.527 775.805 632.608 774.597 632.401C774.381 632.365 771.028 630.373 770.866 630.238C761.91 623.047 763.342 605.898 762.757 595.535C761.621 575.43 760.802 555.146 758.973 535.122C758.225 526.913 756.179 518.703 755.603 510.512C754.44 494.012 753.719 481.612 749.863 465.194C747.565 455.407 741.419 429.193 728.813 428.761C727.489 428.716 720.38 430.193 719.704 431.076C719.289 431.617 717.64 436.51 717.415 437.501C710.657 466.329 720.65 498.266 722.704 527.246C723.479 538.15 724.191 551.658 723.659 562.553C722.866 578.837 722.596 589.741 725.128 606.232C725.641 609.584 728.299 615.477 726.75 618.658C726.344 619.478 725.461 619.541 725.173 620.154C724.866 620.803 725.047 622.001 724.641 622.812C723.488 625.137 721.632 624.245 720.217 624.912C719.541 625.228 719.631 626.372 718.55 626.741C717.649 627.048 716.613 626.543 715.721 626.741C713.315 627.273 711.603 628.877 708.953 627.345C708.287 626.967 708.251 626.201 707.782 625.795C704.124 622.695 702.646 618.64 700.709 613.99C689.392 586.911 687.13 555.119 680.029 526.652C677.623 503.222 681.849 457.399 661.611 440.728C658.097 437.835 652.772 437.952 648.735 440.043C644.473 442.251 644.112 456.227 644.211 460.922C644.815 488.849 647.924 518.046 652.15 545.539C655.916 570.024 657.223 592.02 659.341 616.541C661.188 637.979 666.972 667.915 663.296 687.767C662.719 690.885 661.593 694.597 658.98 696.841C658.178 697.526 654.934 698.653 653.754 698.887C643.743 700.905 631.831 700.491 626.46 690.524C617.963 674.754 614.62 650.775 609.682 633.266C605.538 618.568 600.14 601.582 594.715 587.344C590.075 575.151 580.091 552.487 568.756 545.783C563.737 542.818 556.807 544.846 553.302 549.361C546.355 558.309 549.662 573.511 549.797 584.117C549.932 594.724 548.959 606.385 549.761 616.559C550.644 627.706 557.249 639.015 561.367 649.144C574.847 682.279 583.317 717.108 593.138 751.414C597.464 766.509 603.6 789.335 602.726 805.068C602.519 808.799 601.05 813.764 597.527 815.476C593.796 817.297 591.679 816.855 589.075 813.755C583.164 806.717 580.713 780.197 578.127 769.852C574.414 755.001 568.08 740.88 564.16 726.372C561.322 715.882 559.736 704.844 556.996 694.255C550.419 668.798 540.822 646.576 537.984 619.974C537.425 614.747 537.948 609.908 536.921 604.357C532.812 582.108 524.188 560.877 535.929 538.898C539.327 532.527 549.878 526.192 556.924 525.03C582.947 520.704 598.185 538.889 606.979 560.841C618.477 589.56 622.352 621.353 636.084 649.09L639.652 658.525C639.779 657.263 639.13 656.091 639.13 654.848C639.148 627.444 636.264 599.59 634.534 572.204C633.425 554.614 633.696 535.762 631.786 518.379C630.065 502.726 626.551 488.146 625.884 471.745C625.253 456.371 625.803 429.409 644.887 425.39C661.882 421.813 671.189 426.147 678.542 441.692C686.652 458.832 686.805 479.819 692.086 498.365C695.284 509.611 697.952 521.515 701.538 532.617C701.745 533.266 701.547 534.149 702.529 534.32C702.087 532.265 702.988 530.022 703.015 528.184C703.547 496.671 694.194 466.05 703.358 434.266C707.259 420.749 711.476 414.604 726.596 414.045C727.398 414.018 728.255 413.991 729.057 414.045L729.066 414Z" fill="#141413"/>
<path d="M50 796.378L53.9198 761.256C56.0914 736.808 59.3082 712.197 64.3813 688.227C66.6791 677.391 68.7516 664.527 71.5359 654.132C74.924 641.475 82.6555 625.618 84.2594 612.826C84.7009 609.31 84.0793 605.587 84.3676 602.125C85.6202 587.107 87.7827 571.997 89.3056 556.97C90.3779 546.44 92.7113 536.334 95.2524 526.075C101.632 500.275 116.707 447.448 139.946 432.753C144.921 429.607 149.489 429.066 155.355 429.003C163.204 428.922 167.682 430.284 172.818 436.287C198.842 466.668 169.638 500.852 163.123 532.54C161.185 541.951 161.113 553.048 160.789 562.622C167.925 546.729 175.846 531.178 183.388 515.465C194.192 492.964 205.969 463.666 220.495 443.653C232.434 427.209 259.242 422.008 269.838 442.282C273.974 438.325 278.128 433.502 283.841 431.726C289.554 429.95 300.431 429.986 306.134 432.023C313.884 434.8 317.894 443.95 320.435 451.108C323.652 445.915 328.355 442.634 332.779 438.667C335.284 436.422 337.384 433.231 340.556 431.464C351.657 425.271 370.139 433.466 374.915 444.779C385.935 470.86 365.75 505.531 357.866 530.304C353.955 542.591 351.675 556.041 348.449 568.527C342.025 593.354 335.059 616.838 330.851 642.287C329.698 649.264 325.985 656.71 329.121 663.454C329.734 664.77 333.717 671.225 334.582 671.991C336.672 673.848 343.899 676.165 346.548 674.921C347.332 674.551 353.045 669.917 354.063 668.953C364.939 658.532 376.681 631.523 382.393 617.198C392.711 591.334 404.822 553.4 427.259 535.343C441.433 523.93 465.537 533.27 469.411 550.704C476.935 584.537 455.958 617.55 443.649 647.506C422.465 699.09 412.697 755.992 390.17 805.709C389.088 808.098 384.169 815.689 382.051 816.743C379.059 818.24 373.472 819.862 370.03 819.997C369.066 820.033 368.138 819.718 367.219 819.502C366.084 817.32 363.786 815.797 362.732 813.552C355.848 798.993 364.318 789.5 370.247 777.826C374.194 770.046 376.816 760.4 380.672 752.512C389.395 734.635 395.342 718.327 402.695 699.883C414.463 670.359 427.376 641.16 438.982 611.42C445.442 594.869 452.651 582.148 451.372 563.361C450.993 557.754 447.839 547.035 440.423 550.984C432.169 555.383 423.465 568.031 418.843 576.063C400.677 607.669 389.233 666.735 362.038 689.317C360.776 690.363 352.567 696.304 351.648 696.493C344.133 698.062 328.391 697.305 321.597 693.591C308.819 686.613 304.17 669.899 304.981 656.206C305.413 648.967 305.603 645.361 305.441 638.041C304.81 608.67 323.597 572.052 334.05 544.809C336.303 538.931 337.853 532.692 340.096 526.788C347.873 506.387 363.777 475.727 359.479 453.857C359.109 451.991 354.532 446.655 352.595 446.015C347.864 444.464 340.376 452.036 337.393 455.471C319.362 476.277 319.182 501.745 309.973 526.139C300.71 550.713 292.6 572.971 286.914 598.366C285.977 602.567 286.563 605.587 283.589 609.77C280.787 613.71 278.885 613.529 274.84 614.205C274.443 614.268 274.641 615.287 273.785 615.233C272.785 615.179 272.154 614.367 271.668 614.322C266.559 613.845 265.207 615.134 262.711 609.535C258.079 599.114 265.901 579.489 269.983 569.158C279.444 545.196 292.69 521.325 300.295 496.813C302.296 490.358 303.557 483.498 305.81 476.791C306.585 474.501 308.919 470.706 309.27 468.957C310.433 463.143 309.207 446.294 301.233 445.266C294.592 444.419 288.473 449.855 284.148 454.155C268.865 469.327 257.665 500.14 249.546 520.243C242.67 537.29 236.372 553.986 230.641 571.574C228.028 579.606 224.063 598.546 220.08 604.73C217.242 609.139 209.475 609.085 207.826 603.505C203.626 589.243 223.568 532.521 229.785 516.7C236.967 498.445 246.897 478.874 253.375 460.727C254.727 456.931 255.908 453.578 255.34 449.422C254.817 445.573 249.186 444.121 245.879 445.383C238.967 448.025 233.759 456.977 230.19 463.089C211.123 495.741 193.615 531.016 179.459 566.084C173.08 581.887 167.871 596.888 163.24 613.223C163.023 613.998 161.275 619.055 161.086 619.317C160.653 619.93 159.455 619.38 158.689 619.731C158.41 619.858 157.121 621.949 156.734 622.039C155.932 622.21 150.868 622.634 149.931 622.607C149.633 622.598 145.398 621.498 144.407 621.237C139.1 619.857 138.18 609.193 138.216 604.623C138.361 586.196 141.794 572.367 146.912 555.149C150.823 541.987 153.805 528.401 156.851 514.996C160.203 500.266 167.556 474.402 165.934 460.231C165.79 458.978 164.709 455.245 164.159 454.146C163.87 453.56 159.536 447.898 159.194 447.682C157.95 446.916 155.689 447.637 154.454 448.268C134.9 458.365 124.186 516.267 118.338 536.515C112.49 556.762 107.94 576.045 100.984 595.689C97.2261 606.308 91.1438 620.669 89.5128 631.865C88.6568 637.761 89.702 643.918 89.5128 649.814C88.9992 664.932 85.8994 681.168 83.3764 695.953C79.4746 718.868 77.1947 742.181 73.9418 765.097C72.1666 777.573 70.6349 795.062 66.8593 807.124C66.4809 808.341 62.7232 817.031 62.2276 817.716C61.6329 818.527 60.6145 819.123 59.6053 819.015C57.5328 818.789 51.7749 809.162 50.0088 807.214V796.405L50 796.378Z" fill="#141413"/>
<path d="M482.46 107.706L479.097 109.999V184.607C479.097 254.322 478.944 259.367 476.498 260.438C474.969 261.049 465.796 262.272 456.164 263.037C446.532 263.648 430.326 265.024 420.236 265.788C410.146 266.706 394.399 267.929 385.073 268.693C358.471 270.834 354.801 272.057 352.049 279.089C350.521 283.217 350.979 284.44 370.09 325.413C378.04 342.689 385.837 359.66 387.366 363.023L390.271 369.444L386.143 373.113C378.804 379.84 359.235 395.129 350.674 400.786C344.864 404.761 340.583 406.442 336.608 406.442C330.493 406.442 323.154 409.194 323.154 411.335C323.154 412.099 323.919 414.087 324.683 415.768C326.059 418.214 328.047 418.673 336.455 418.673C345.628 418.673 347.922 418.062 359.694 411.64C366.879 407.665 377.734 401.244 383.697 397.116C397.303 387.943 404.948 384.733 409.993 386.109C412.133 386.567 418.86 391.154 424.67 396.199C443.933 412.252 459.069 417.45 476.192 413.475C486.894 410.876 492.398 407.818 506.31 396.658C518.235 387.179 532.3 378.923 536.734 378.923C539.945 378.923 550.799 386.414 560.125 394.976C577.096 410.876 595.289 410.264 613.482 393.6C624.184 383.663 632.134 378.923 637.791 378.923C643.448 378.923 652.926 383.357 661.029 389.625C672.954 398.951 681.057 400.938 687.02 396.046C691.912 392.071 689.924 387.332 681.974 383.357C678.458 381.522 673.107 378.159 670.202 375.865C661.029 368.68 649.41 363.482 640.543 362.564C630.452 361.494 630.299 361.188 635.65 344.983C637.638 338.867 640.849 328.624 642.683 322.356C644.518 316.088 647.27 307.067 648.799 302.481C652.162 292.39 657.513 274.35 658.889 268.54C659.653 265.177 658.889 263.342 655.22 259.673L650.633 255.087L615.775 255.851C596.512 256.31 563.948 257.38 543.308 258.297C522.669 259.214 503.405 259.826 500.5 259.52L495.149 258.909L494.691 247.289L494.232 235.67L500.806 233.836C504.475 232.765 510.132 231.237 513.496 230.319C519.611 228.79 536.734 224.051 545.754 221.299C548.353 220.535 551.411 219.923 552.481 219.923C556.762 219.923 580.918 208.763 585.046 204.94C593.454 196.99 592.384 195.309 560.125 167.178C550.494 158.769 536.734 146.386 529.549 139.659C505.393 117.185 491.174 105.26 488.575 105.26C487.047 105.26 484.295 106.33 482.46 107.706ZM531.842 161.827C539.486 169.013 550.341 179.103 556.303 184.148C565.629 192.404 566.699 193.78 564.865 196.073C563.795 197.449 561.501 198.519 559.973 198.519C558.444 198.519 555.692 199.131 553.704 199.895C550.188 201.271 542.544 203.412 530.313 206.469C526.949 207.234 520.07 209.221 515.024 210.75C509.979 212.279 503.405 213.808 500.5 214.113L495.149 214.572L494.691 174.975C494.385 146.997 494.844 134.766 496.067 133.39C498.054 130.944 506.922 137.977 531.842 161.827ZM638.097 273.586C638.097 274.656 636.109 281.23 633.663 288.568C631.217 295.754 627.242 308.29 624.643 316.24C622.044 324.19 618.527 334.587 616.693 339.173C614.858 343.76 612.106 352.015 610.272 357.519C605.532 372.808 602.933 379.382 600.181 382.592C596.971 386.109 587.186 391.154 583.517 391.154C580.306 391.154 570.98 385.038 561.043 376.171C540.556 358.131 526.797 359.66 497.443 382.745C481.084 395.74 477.721 397.269 466.254 397.269C459.68 397.269 454.176 396.352 451.119 394.823C445.462 391.765 430.174 380.299 427.116 376.63C424.517 373.419 417.025 369.444 411.369 368.374C406.935 367.457 405.712 365.163 396.233 341.466C394.551 337.186 391.799 330.764 389.965 326.942C385.378 316.852 375.135 290.25 375.135 288.568C375.135 287.039 382.321 285.511 396.539 283.982C403.724 283.37 415.802 281.994 423.294 281.077C440.264 279.089 463.655 277.255 506.463 275.114C524.503 274.197 539.639 272.974 540.098 272.668C540.403 272.21 562.724 271.904 589.479 271.904C624.643 271.904 638.097 272.363 638.097 273.586Z" fill="#E8E6DC"/>
<path d="M529.092 409.347C522.518 410.723 512.122 417.603 501.267 427.846C490.106 438.548 485.214 440.536 473.136 439.618C459.529 438.701 452.65 435.949 437.514 426.011C420.85 414.851 411.676 411.64 403.421 414.086C392.872 417.297 387.521 419.896 377.736 427.54C372.538 431.668 366.423 436.102 364.129 437.631C357.097 442.217 344.101 446.192 336.151 446.192C326.061 446.192 321.78 448.944 324.226 454.142C325.45 456.894 327.896 458.27 333.858 459.646C338.139 460.716 343.184 461.481 345.019 461.481C352.816 461.481 372.844 452.919 388.438 442.829C411.371 427.999 412.594 427.846 433.08 441.759C446.84 451.085 455.401 454.448 472.219 457.047C481.239 458.576 485.214 457.964 498.209 453.378C500.808 452.461 507.076 447.874 512.427 443.287C533.22 424.941 537.348 424.024 551.566 433.961C568.383 445.734 585.353 452.308 599.419 452.308C607.827 452.308 616.542 448.791 628.926 440.688C631.983 438.701 637.793 436.713 642.838 436.102C649.871 435.337 652.47 435.643 657.974 438.548C661.643 440.383 668.523 442.217 673.109 442.676C680.295 443.287 682.282 442.982 685.951 440.077C693.596 433.961 690.232 427.999 677.084 424.636C672.956 423.565 666.076 421.272 661.796 419.743C645.284 413.169 630.913 415.004 613.178 425.859C608.286 428.763 601.559 431.515 598.349 431.974C590.246 433.044 576.639 428.611 564.714 420.966C546.521 409.194 540.252 407.207 529.092 409.347Z" fill="#E8E6DC"/>
</svg>
