<svg width="1000" height="1000" viewBox="0 0 1000 1000" fill="none" xmlns="http://www.w3.org/2000/svg">
<path d="M764.403 508.868C755.992 508.673 746.937 507.443 738.41 507.121C736.824 507.064 734.767 508.167 733.067 507.834C731.849 507.593 726.39 503.927 725.54 502.927C725.172 502.49 722.299 496.71 721.943 495.86C715.439 479.864 723.207 455.33 724.942 437.783C726.54 421.661 726.85 405.148 727.402 388.969C727.677 380.764 729.24 374.03 727.919 365.354C727.654 363.607 725.138 359.367 723.38 359.494C722.483 359.562 721.346 360.413 719.645 360.539C717.105 360.723 714.681 359.838 712.762 359.919C708.694 360.103 698.788 363.826 693.767 364.722C687.263 365.883 679.862 366.848 673.255 367.377C663.338 368.181 657.11 366.032 648.02 365.699C645.94 365.618 643.883 366.618 642.7 366.584C640.677 366.526 637.862 364.906 635.656 364.86C628.6 364.711 622.797 367.664 614.374 366.469C609.915 365.837 591.426 360.758 587.967 358.747C583.267 356.012 585.347 355.931 583.669 352.392C583.187 351.381 581.911 350.967 581.29 349.14C579.693 344.417 580.245 340.843 582.095 336.385C582.578 335.213 583.922 334.316 583.979 333.316C584.048 332.098 582.313 328.019 582.256 325.767C582.129 321.228 584.359 316.286 584.278 311.989C584.094 301.762 585.45 299.98 587.082 290.661C589.162 278.722 587.323 265.932 587.369 253.889C587.381 250.913 588.622 246.397 588.438 243.777C588.323 242.111 587.128 240.984 587.105 239.399C587.082 237.169 587.714 233.929 587.737 230.642C587.76 226.54 588.059 222.495 587.772 218.404C585.749 218.726 583.531 217.968 581.601 218.186C579.67 218.404 578.107 219.691 576.82 219.714C575.235 219.749 573.913 218.358 571.81 218.347C568.535 218.335 565.203 219.036 562.433 219.036C555.918 219.036 550.471 216.945 544.588 216.795C538.945 216.658 530.442 218.806 525.144 217.381C521.639 216.439 519.514 215.98 515.894 215.485C512.55 215.026 508.769 214.911 505.414 214.819C484.937 214.244 463.747 210.659 443.603 214.842C432.893 217.06 417.092 217.623 405.877 217.807C403.245 217.853 391.869 216.508 390.639 217.945C390.18 218.473 389.697 230.619 389.847 231.895C390.088 233.871 391.306 235.262 391.593 237.031C392.179 240.582 393.558 250.752 393.443 253.912C393.397 255.199 391.743 256.498 391.8 258.187C391.835 259.267 392.846 260.175 392.972 261.37C393.259 264.047 391.846 267.161 391.8 269.506C391.766 271.701 393.041 274.907 393.007 276.975C392.938 282.468 391.306 290.73 391.168 296.418C391.03 302.44 393.409 308.243 392.777 316.298C392.248 322.997 392.892 327.284 393.053 333.88C393.202 339.763 393.432 345.486 392.214 351.289C390.352 360.16 387.387 368.158 377.011 368.652C370.725 368.951 363.738 367.066 356.35 367.411C348.961 367.756 342.204 370.065 335.114 370.479C317.797 371.49 302.72 370.812 285.541 368.79C280.289 368.169 273.739 369.985 268.361 368.652C267.856 369.571 269.384 378.27 269.487 380.235C270.315 396.174 272.877 411.595 273.245 427.809C273.383 433.658 272.705 440.254 272.831 445.942C273.211 462.352 275.968 471.464 269.993 487.655C269.028 490.275 267.948 494.136 265.454 495.665C263.604 496.802 259.961 495.481 257.973 496.216C255.985 496.952 254.71 499.629 250.331 500.571C233.164 504.249 212.146 505.271 194.748 505.168C185.659 505.122 176.179 503.8 167.112 503.421C149.668 502.709 131.271 506.466 114.103 502.456C109.334 501.341 106.473 494.136 106.369 489.655C106.197 482.3 108.495 474.797 109.736 467.706C112.081 454.423 108.61 448.631 107.059 436.266C105.266 421.971 105.289 403.988 106.186 389.612C106.415 385.831 107.404 381.534 107.427 378.339C107.461 373.582 105.979 366.802 106.163 362.114C106.243 360.172 108.07 358.356 107.99 356.494C107.725 350.622 105.795 343.325 105.45 337.04C104.933 327.341 106.197 316.677 106.105 307.013C106.013 296.349 102.244 285.456 102.991 274.435C103.6 265.553 104.416 260.497 103.577 251.373C102.784 242.743 103.359 235.388 101.543 227.057C99.9918 219.956 102.278 216.198 102.072 209.924C101.623 195.939 102.784 185.85 105.22 172.106C106.806 163.166 105.381 161.592 104.933 153.548C104.324 142.413 107.496 129.887 106.737 118.568C105.795 104.423 105.772 95.9191 107.116 81.8654C107.541 77.4642 108.668 72.523 111.828 69.179C112.713 68.2483 113.586 68.3632 114.034 67.961C114.792 67.2945 114.965 65.95 116.148 65.3755C118.722 64.1229 123.56 63.7552 126.169 62.8704C136.097 59.5034 142.82 54.1715 154.069 51.9537C159.677 50.839 165.882 51.586 171.548 51.2642C177.213 50.9425 184.9 49.3222 190.198 49.575C192.956 49.7014 196.035 51.3447 198.46 51.2872C201.172 51.2297 203.964 48.9315 206.021 49.0464C207.435 49.1268 209.664 50.839 211.169 51.1148C216.49 52.1146 219.19 50.908 223.557 50.5862C228.785 50.207 233.072 50.7356 239.219 50.0117C244.735 49.3682 250.504 49.2647 255.686 48.311C259.674 47.5755 266.327 46.8171 270.303 47.2308C273.705 47.587 275.187 49.2533 279.129 48.0926C279.669 47.9318 279.623 46.909 279.875 46.932C281.84 47.0814 288.379 47.4606 289.804 47.7479C291.424 48.0811 293.906 49.7704 295.63 50.0002C300.307 50.5977 308.42 50.1381 313.729 50.6322C319.647 51.1838 325.875 51.3447 331.735 51.9882C333.792 52.218 337.619 54.0796 339.446 54.3554C341.641 54.6886 345.008 53.8957 346.789 54.3783C347.318 54.5277 347.605 55.6539 348.248 56.1595C351.029 58.2854 355.12 56.5042 358.832 56.8834C365.6 57.5959 365.416 58.2624 372.598 57.4925C382.239 56.4583 393.179 60.2733 402.901 60.9054C426.308 62.4337 450.681 58.6531 473.48 55.0448C476.456 54.5737 483.879 52.7466 485.844 52.6776C487.809 52.6087 491.613 54.2749 493.474 54.2864C497.611 54.3209 503.265 52.172 507.253 51.8618C512.159 51.494 518.307 51.8273 523.202 51.6779C526.673 51.5745 529.982 51.1723 533.257 50.862C536.13 50.5977 538.382 53.1028 539.095 53.0339C542.404 52.7121 548.839 50.8046 552.39 50.6552C554.539 50.5633 557.561 52.0226 559.813 51.8618C561.732 51.7239 564.697 50.0347 566.869 50.0232C568.064 50.0232 572.017 51.6549 573.04 51.6664C573.936 51.6664 574.672 50.4024 575.522 50.2875C577.418 50.0117 580.601 51.54 582.52 51.6664C584.991 51.8273 599.01 53.0568 599.883 52.9649C601.561 52.7811 602.526 51.2412 605.48 51.517C609.789 51.9192 619.982 54.7576 623.337 54.2864C628.703 53.528 628.393 54.2979 633.15 54.4243C637.62 54.5392 644.791 53.2637 648.859 53.7004C650.054 53.8268 649.721 54.9759 650.031 54.9529C655.202 54.5162 660.488 54.8495 665.464 54.7001C667.532 54.6426 669.773 56.3893 671.324 56.2744C672.542 56.194 673.508 55.0104 675.105 54.9989C680.253 54.9414 686.906 57.412 691.422 57.2052C697.697 56.9179 700.615 56.6306 707.039 56.9064C720.691 57.4925 734.342 57.8142 747.753 58.4807C751.901 58.6876 751.292 57.9061 755.486 59.3196C762.691 61.7442 763.817 59.0208 770.333 58.768C783.95 58.2509 798.291 59.6298 812.276 59.3885C821.664 59.2276 833.477 59.9631 842.728 58.3888C851.059 56.9754 857.206 55.1023 866.066 54.3094C867.549 54.1715 869.088 53.2407 870.513 53.2407C872.697 53.2407 884.728 59.2621 885.682 60.8134C886.038 61.388 885.808 62.4452 886.21 63.0772C888.164 66.1224 889.451 66.7314 889.646 70.9487C890.543 90.1046 889.934 109.421 890.209 128.531C890.566 152.513 891.37 176.3 891.335 199.949C891.335 204.052 890.301 208.947 890.807 213.107C890.956 214.302 892.048 213.957 892.036 214.267C891.922 216.83 891.14 219.323 891.198 222.438C891.6 243.949 893.048 266.541 892.714 288.179C892.68 290.293 893.174 292.58 893.105 293.821C893.036 295.062 891.462 295.763 891.462 296.924C891.462 297.154 893.025 297.28 893.025 300.693C893.025 321.216 890.301 341.705 892.691 362.7C893.875 373.088 896.242 383.648 897.357 393.806C898.276 402.149 898.15 409.411 898.058 417.743C898.012 421.523 898.609 422.075 899 425.545V429.303C898.242 430.636 897.862 433.118 897.771 434.635C897.437 439.84 898.885 446.632 898.334 451.423C898.092 453.538 896.782 455.078 896.529 456.56C895.748 461.11 896.001 465.914 894.944 469.959C893.392 475.9 892.91 483.518 890.405 489.218C890.209 489.655 886.567 493.424 886.072 493.677C883.2 495.159 879.879 493.573 879.614 493.769C879.43 493.906 878.867 496.641 878.155 497.342C877.948 497.549 874.903 499.25 874.363 499.503C862.423 505.11 854.012 503.18 841.682 503.203C835.316 503.203 827.64 503.329 821.021 503.789C814.137 504.26 808.116 504.444 800.945 504.432C788.328 504.409 780.399 504.777 767.782 507.489C766.724 507.719 765.598 507.696 764.966 508.788C764.76 508.788 764.553 508.788 764.334 508.788L764.403 508.868Z" fill="#141413"/><path d="M610.855 500L612.785 501.529C612.13 504.516 613.325 507.562 613.383 510.308C613.532 517.433 613.233 524.5 613.406 531.613C614.061 558.743 614.417 586.817 613.118 614.131C612.843 619.98 610.705 628.036 611.751 633.368C612.326 636.298 613.59 638.493 616.842 638.378C618.106 638.332 618.749 637.412 619.324 637.355C623.92 636.884 635.009 639.665 640.008 639.01C649.258 637.803 654.269 635.39 664.45 635.229C683.031 634.919 701.371 635.413 719.987 634.425C725.261 634.149 726.709 634.701 731.547 635.103C732.926 635.218 734.339 634.218 735.684 634.678C735.891 634.747 738.821 637.516 738.925 637.711C739.028 637.895 739.005 641.63 738.982 641.837C738.867 642.538 737.729 642.974 737.488 643.813C736.35 647.674 739.58 658.464 739.706 663.268C739.786 666.37 738.407 671.358 738.626 674.345C738.706 675.425 739.626 677.471 739.913 679.896C742.521 701.614 740.533 723.126 741.464 744.879C741.694 750.314 741.085 750.406 740.533 755.163C740.177 758.266 738.879 770.895 739.706 772.791C740.108 773.71 741.062 774.422 741.728 775.146C737.902 776.594 740.545 780.099 743.337 781.087C743.762 781.237 750.347 782.122 750.91 782.122C753.047 782.156 755.84 781.041 757.736 781.064C759.39 781.087 760.413 782.34 762.068 782.351C764.297 782.374 768.514 780.444 769.606 780.478C771.054 780.524 775.8 782.869 778.408 782.983C798.576 783.914 819.122 783.144 839.128 783.006C848.31 782.949 860.042 781.363 868.66 782.018C873.039 782.351 870.913 782.294 872.591 784.535C874.268 786.775 876.222 784.811 878.267 786.086C878.256 786.293 878.267 786.5 878.267 786.707C876.865 814.343 874.774 841.899 874.234 869.65C873.878 887.772 873.292 905.549 872.28 923.487C871.637 934.829 870.648 946.216 870.74 957.593C870.005 957.294 869.419 957.018 868.569 956.949C866.535 956.788 860.559 956.742 858.594 956.972C856.629 957.202 853.871 959.546 852.102 959.937C850.642 960.259 846.609 959.5 844.897 959.604C822.581 960.994 799.38 960.511 777.121 960.362C770.721 960.316 762.93 961.454 756.61 961.189C749.508 960.891 743.498 961.35 736.442 961.327C720.274 961.281 704.485 960.488 688.719 960.753C678.825 960.925 669.15 961.419 659.359 961.488C645.144 961.58 631.516 961.867 617.451 961.948C592.584 962.097 567.636 961.431 542.895 961.339C527.095 961.281 511.605 961.844 495.908 962.097C469.535 962.511 444.967 963.051 418.859 962.614C408.253 962.43 397.681 961.362 387.557 962.568C378.686 963.626 365.988 963.097 356.278 963.2C316.737 963.603 276.977 963.809 237.24 963.878C214.016 963.913 190.632 964.499 167.109 963.384C156.434 962.879 146.299 962.867 135.738 963.154C133.44 963.212 123.201 961.695 121.868 960.58C120.869 959.742 120.937 954.961 121.087 953.525C121.891 945.86 122.971 942.367 122.937 934.162C122.822 906.514 123.201 878.384 122.742 850.988C122.512 837.693 123.879 823.421 124.224 810.195C124.419 803.105 124.982 795.199 124.902 788.269C124.89 786.994 124.821 785.994 124.224 784.845C132.302 782.949 140.116 786.546 148.149 785.96C157.181 785.305 166.684 784.661 175.934 784.201C185.369 783.742 191.137 785.488 199.744 786.661C208.351 787.833 224.416 784.615 233.632 783.857C239.642 783.363 244.767 784.42 250.421 784.833C253.604 785.063 258.12 783.684 261.062 783.719C262.647 783.742 264.428 784.73 265.98 784.627C272.323 784.213 271.53 770.849 272.059 766.425C273.047 758.208 274.104 752.532 273.909 743.821C273.633 731.468 272.863 718.288 272.036 706.256C271.105 692.605 272.863 679.252 273.277 665.623C273.587 655.442 273.127 645.158 272.702 635.034C275.173 631.644 277.574 633.839 280.47 633.977C290.939 634.471 300.821 632.908 311.152 632.862C315.381 632.839 318.805 632.379 322.517 632.322C326.228 632.264 332.273 633.195 336.869 633.333C343.511 633.528 354.692 633.862 361.024 633C362.862 632.747 364.873 631.494 366.896 631.471C371.515 631.426 376.985 633.391 381.432 633.712C383.386 633.85 385.328 633.023 386.925 633.057C393.544 633.207 394.406 637.585 397.692 629.081C403.357 614.453 400.875 591.907 401.002 576.049C401.151 557.353 400.749 538.404 401.91 519.857C402.036 517.789 402.863 515.341 402.921 513.445C402.99 511.308 401.473 502.908 402.99 501.988C409.597 501.023 416.113 502.747 422.743 502.919C433.545 503.195 444.358 501.965 455.229 501.931C477.062 501.873 498.861 502.287 520.407 502.459C549.308 502.689 578.668 500.793 607.695 500.023H610.832L610.855 500Z" fill="#D97757"/>
</svg>
