<svg xmlns="http://www.w3.org/2000/svg" viewBox="0 0 1000 1000" fill="none" >
                <path d="M239.949 52.4888C240.483 53.3042 241.815 52.978 242.658 52.9961C275.744 53.4219 308.55 53.884 341.446 53.9474C362.881 53.9927 383.882 54.346 405.145 54.4004C496.559 54.645 587.837 55.243 679.658 55.9768C712.889 56.2395 746.22 56.1127 779.425 56.8918C789.327 57.1274 799.347 56.8284 809.05 56.9824C810.155 57.0006 811.152 56.4026 812.257 56.4479C812.529 56.7469 811.931 63.4693 811.958 64.5202C812.375 81.9966 812.593 99.473 814.25 116.967C812.475 148.079 818.844 180.794 808.543 210.628C799.673 236.34 784.027 259.904 773.508 284.782C770.138 292.764 767.583 302.195 763.95 309.806C759.91 318.268 752.97 327.327 748.114 335.581C742.687 344.822 738.51 354.815 731.77 363.485C720.49 377.99 705.85 391.317 693.519 405.36C684.469 415.67 676.876 426.596 667.717 436.634C650.675 455.315 636.343 475.32 618.866 493.747C617.788 494.88 615.686 496.619 614.237 497.271C617.906 500.261 620.697 504.175 624.103 507.4C632.076 514.938 640.066 520.483 647.323 529.135C660.234 544.537 672.319 560.056 685.873 575.077C698.656 589.247 710.362 605.328 722.647 620.286C734.932 635.243 746.492 645.735 755.353 663.673C762.827 678.812 770.519 693.833 778.238 708.854C791.094 733.869 801.811 758.104 811.859 784.531C813.345 788.436 818.128 799.761 818.645 802.941C819.813 810.098 817.883 821.939 818.509 830.265C820.783 860.896 819.922 891.065 819.378 921.833L817.204 948.441H813.254C810.174 947.436 806.776 947.626 803.678 947.436C785.848 946.339 767.384 946.829 749.283 946.484C647.677 944.564 545.527 943.386 443.142 942.525C364.775 941.873 286.145 943.332 207.623 942.543C202.169 942.489 195.211 941.474 189.848 941.8C186.441 942.009 184.312 944.265 180.716 943.984C180.96 940.985 181.159 937.869 181.259 934.843C182.573 894.399 181.196 850.396 181.105 808.83C181.105 807.652 180.752 805.224 180.226 804.137V801.174C181.15 800.83 181.259 800.096 181.567 799.308C191.026 774.937 199.08 750.131 208.991 725.932C217.852 704.306 227.446 684.474 237.611 663.646C240.456 657.811 244.397 647.103 247.885 642.446C250.431 639.049 255.124 635.524 258.014 632.172C291.59 593.36 325.247 554.792 366.931 524.233C379.316 515.156 392.815 507.926 404.901 498.495C398.939 493.086 391.682 489.398 385.422 484.397C378.79 479.097 372.838 472.402 366.65 466.613C332.911 435.012 298.693 404.218 265.887 371.757C261.439 367.354 253.285 359.952 249.851 355.186C246.843 351.001 244.506 343.481 241.724 338.607C240.429 336.342 238.254 334.322 237.303 332.655C217.172 297.33 203.909 257.929 184.412 222.016C184.276 196.64 182.283 171.462 181.721 146.176C181.105 118.49 181.866 90.3769 183.714 62.6448C183.877 60.2168 182.7 58.1602 183.678 55.8228C184.475 54.6359 199.333 53.286 201.635 54.2826C210.486 52.7062 219.428 53.1592 228.379 53.4853L239.487 52.4978H239.985L239.949 52.4888Z" fill="#D97757"/>
                <path d="M750.922 212.041C750.75 213.926 751.158 216.136 750.922 217.966C750.016 224.988 740.014 241.513 736.255 248.462C730.139 259.768 723.073 270.993 716.722 282.3C705.515 302.25 694.951 324.718 681.606 343.191C657.271 376.866 627.057 409.98 594.197 434.278C588.208 438.709 580.806 444.733 574.655 448.81C567.651 453.458 558.945 456.774 551.507 461.702C538.162 470.545 524.101 479.46 511.87 489.589C510.348 490.848 503.961 497.797 502.357 497.788C501.968 497.788 501.025 496.818 500.183 496.701C499.404 496.592 498.634 497.371 497.411 497.235C491.658 496.574 479.925 489.516 474.797 486.019C470.856 483.337 466.616 480.402 465.203 475.727C455.436 468.996 445.108 462.717 435.505 455.696C409.585 436.77 383.746 413.885 362.863 389.722C353.269 378.624 339.67 368.604 328.708 358.72C317.936 349.007 310.117 337.375 301.9 325.642C283.463 299.314 268.025 271.809 256.727 241.449C254.182 234.609 248.374 218.582 250.087 212.05C250.268 211.38 252.107 206.352 252.37 206.188C252.859 205.889 254.453 206.297 255.405 206.016C257.153 205.509 261.638 201.803 264.927 200.725C278.045 196.431 304.563 194.954 318.814 194.538C337.804 193.976 353.513 198.542 371.524 199.104C393.295 199.783 415.039 197.908 436.674 196.721C445.208 196.25 453.606 197.582 461.851 197.745C480.079 198.116 497.365 196.775 515.322 199.122C529.211 200.934 542.646 200.091 556.68 200.227C587.864 200.517 621.938 202.202 652.913 200.182C657.778 199.865 662.254 198.479 666.421 198.325C682.53 197.708 700.287 200.571 715.788 196.875C720.273 195.806 720.916 197.391 724.586 197.536C727.503 197.654 731.371 196.06 734.361 196.232C737.351 196.404 744.254 198.832 746.465 200.952C748.277 202.691 749.699 209.577 750.931 212.041H750.922ZM677.647 308.628C685.003 297.611 687.631 290.771 692.432 278.73C698.747 262.912 706.339 248.905 714.294 233.93C716.024 230.677 717.773 227.298 720.065 224.381L719.557 223.393C716.857 223.891 712.998 224.082 710.633 222.94C658.286 223.493 605.739 223.638 553.273 221.219C535.154 220.385 516.889 218.655 498.86 217.966C476.066 217.087 452.184 216.073 429.716 216.942C378.192 218.936 327.149 214.315 275.735 217.006C274.476 217.069 273.352 215.901 272.546 217.205C273.416 219.515 274.766 221.626 275.717 223.9C279.332 232.489 283.137 241.033 286.389 249.667C290.91 261.671 294.181 275.496 299.743 287.265C308.858 306.517 324.087 328.27 339.498 342.557C359.719 361.302 379.488 380.744 400.579 398.492C414.441 410.152 428.61 421.45 443.659 431.696C456.089 440.158 476.138 454.482 490.126 458.305C504.994 462.373 509.841 457.426 521.673 450.151C527.371 446.645 530.515 444.407 535.879 440.657C545.536 433.907 556.716 429.142 566.247 422.129C592.312 402.968 617.055 383.299 638.49 358.366C651.581 343.146 666.503 325.28 677.619 308.619L677.647 308.628Z" fill="#141413"/>
                <path d="M528.096 686.866C533.034 691.65 538.678 700.474 543.308 705.973C566.093 733.017 588.616 760.242 611.918 786.968C619.727 795.928 630.101 805.16 637.276 813.93C643.219 821.187 648.746 830.827 654.662 838.537C661.683 847.687 669.511 856.303 676.161 865.426C677.52 867.292 679.495 868.624 680.328 871.143C678.444 871.578 680.156 871.759 680.355 873.571C680.473 874.712 680.075 879.415 679.73 880.411C679.241 881.833 677.665 881.507 677.121 882.25C676.614 882.939 675.599 886.545 674.82 887.849C672.274 892.071 669.04 894.363 664.157 895.45C649.588 898.676 620.262 896.701 604.525 896.094C583.234 895.269 560.956 893.04 539.792 890.359C527.444 888.791 515.44 886.345 502.828 887.161C483.422 888.42 463.88 891.763 444.438 893.013C411.958 895.097 379.089 893.24 346.818 893.584C337.061 893.693 326.207 895.795 316.993 890.857C314.212 889.371 310.824 886.246 310.534 883.002C310.09 878.01 311.938 870.418 314.402 866.097C316.06 863.188 319.05 861.059 320.826 858.206C325.673 850.405 328.653 844.625 334.424 836.996C346.873 820.508 359.04 802.941 372.231 786.787C379.017 778.47 389.354 770.751 395.805 762.588C396.475 761.737 397.173 759.127 398.224 757.85C403.85 750.973 412.901 745.03 418.427 738.552C425.095 730.761 431.084 722.064 438.594 715.024C441.466 712.333 447.391 709.017 449.557 706.481C450.517 705.348 451.224 703.255 452.329 701.851C457.937 694.748 474.371 680.905 482.045 675.523C483.295 674.645 486.693 672.515 488.097 672.389C489.384 672.28 490.57 672.941 491.449 672.823C493.832 672.497 496.369 671.274 498.869 671.374C505.284 671.628 523.331 682.255 528.096 686.875V686.866ZM509.188 699.849C507.123 697.72 505.429 695.727 502.765 694.141C502.004 694.014 497.257 698.943 496.197 699.813C479.101 713.828 463.137 728.342 446.368 743.291C409.512 777.211 380.466 817.228 349.554 855.832L336.726 871.877C339.344 871.451 342.723 870.971 345.341 870.871C357.599 870.391 369.667 869.412 381.898 869.195C408.742 868.715 435.949 871.116 462.856 871.424C470.222 871.505 477.198 872.312 484.084 872.411C489.936 872.493 497.628 871.007 503.807 870.871C525.913 870.373 547.656 871.523 569.445 869.911C590.7 868.334 611.745 868.47 633.09 867.736C637.783 867.573 642.522 866.477 647.242 866.441C647.804 865.879 639.641 854.029 638.843 853.014C628.515 839.896 617.788 826.931 607.542 813.568C588.045 788.146 569.092 766.538 547.838 743.164C541.414 736.106 535.036 729.601 528.495 722.77C521.618 715.586 516.11 707.006 509.188 699.849Z" fill="#141413"/>
                <path d="M328.189 256.762C332.99 258.048 337.693 256.064 338.694 252.329C339.694 248.595 336.613 244.525 331.812 243.239C327.011 241.952 322.308 243.936 321.307 247.671C320.306 251.405 323.387 255.475 328.189 256.762Z" fill="#141413"/>
                <path d="M380 280C383.314 280 386 277.761 386 275C386 272.239 383.314 270 380 270C376.686 270 374 272.239 374 275C374 277.761 376.686 280 380 280Z" fill="#141413"/>
                <path d="M427.736 255.518C433.445 253.44 436.848 248.39 435.337 244.238C433.826 240.086 427.973 238.405 422.264 240.482C416.555 242.56 413.152 247.61 414.663 251.762C416.175 255.914 422.027 257.595 427.736 255.518Z" fill="#141413"/>
                <path d="M480 268C483.866 268 487 265.314 487 262C487 258.686 483.866 256 480 256C476.134 256 473 258.686 473 262C473 265.314 476.134 268 480 268Z" fill="#141413"/>
                <path d="M532.042 251.344C537.047 253.678 542.429 252.73 544.063 249.226C545.697 245.722 542.964 240.99 537.959 238.656C532.953 236.322 527.571 237.27 525.937 240.774C524.303 244.278 527.037 249.01 532.042 251.344Z" fill="#141413"/>
                <path d="M590 275C593.314 275 596 272.761 596 270C596 267.239 593.314 265 590 265C586.686 265 584 267.239 584 270C584 272.761 586.686 275 590 275Z" fill="#141413"/>
                <path d="M646.553 257.796C651.354 256.509 654.551 252.871 653.693 249.671C652.836 246.47 648.248 244.918 643.447 246.204C638.646 247.491 635.449 251.129 636.307 254.329C637.164 257.53 641.752 259.082 646.553 257.796Z" fill="#141413"/>
                <path d="M357 315.196C360.826 317.405 365.271 316.87 366.928 314C368.585 311.13 366.826 307.013 363 304.804C359.174 302.595 354.729 303.13 353.072 306C351.415 308.87 353.174 312.987 357 315.196Z" fill="#141413"/>
                <path d="M415 335C418.314 335 421 332.761 421 330C421 327.239 418.314 325 415 325C411.686 325 409 327.239 409 330C409 332.761 411.686 335 415 335Z" fill="#141413"/>
                <path d="M466.216 311.894C471.655 310.935 475.52 307.071 474.848 303.264C474.177 299.456 469.224 297.147 463.785 298.106C458.346 299.065 454.481 302.929 455.152 306.737C455.823 310.544 460.777 312.853 466.216 311.894Z" fill="#141413"/>
                <path d="M520 325C523.866 325 527 322.761 527 320C527 317.239 523.866 315 520 315C516.134 315 513 317.239 513 320C513 322.761 516.134 325 520 325Z" fill="#141413"/>
                <path d="M572.606 306.578C577.277 308.278 582.135 306.711 583.457 303.078C584.78 299.445 582.065 295.122 577.394 293.422C572.723 291.722 567.865 293.289 566.543 296.922C565.221 300.555 567.935 304.878 572.606 306.578Z" fill="#141413"/>
                <path d="M620 329C623.314 329 626 327.209 626 325C626 322.791 623.314 321 620 321C616.686 321 614 322.791 614 325C614 327.209 616.686 329 620 329Z" fill="#141413"/>
                <path d="M412.113 374.532C415.617 372.898 417.511 369.544 416.344 367.042C415.177 364.539 411.391 363.835 407.887 365.468C404.383 367.102 402.489 370.456 403.656 372.958C404.823 375.461 408.61 376.165 412.113 374.532Z" fill="#141413"/>
                <path d="M460 389C463.314 389 466 387.209 466 385C466 382.791 463.314 381 460 381C456.686 381 454 382.791 454 385C454 387.209 456.686 389 460 389Z" fill="#141413"/>
                <path d="M503.753 370.869C508.615 371.902 513.115 370.113 513.804 366.871C514.492 363.63 511.11 360.165 506.248 359.131C501.386 358.098 496.886 359.888 496.197 363.129C495.508 366.37 498.891 369.835 503.753 370.869Z" fill="#141413"/>
                <path d="M555 385C558.314 385 561 382.761 561 380C561 377.239 558.314 375 555 375C551.686 375 549 377.239 549 380C549 382.761 551.686 385 555 385Z" fill="#141413"/>
                <path d="M596.545 364.755C600.222 363.561 602.511 360.463 601.658 357.837C600.804 355.211 597.132 354.05 593.455 355.245C589.778 356.439 587.49 359.537 588.343 362.163C589.196 364.789 592.869 365.95 596.545 364.755Z" fill="#141413"/>
                <path d="M470 429C473.314 429 476 427.209 476 425C476 422.791 473.314 421 470 421C466.686 421 464 422.791 464 425C464 427.209 466.686 429 470 429Z" fill="#141413"/>
                <path d="M513.127 419.636C516.712 421.084 520.456 420.183 521.49 417.622C522.525 415.062 520.458 411.812 516.873 410.364C513.289 408.916 509.544 409.817 508.51 412.378C507.475 414.938 509.543 418.188 513.127 419.636Z" fill="#141413"/>
                <path d="M545 434C547.761 434 550 432.209 550 430C550 427.791 547.761 426 545 426C542.239 426 540 427.791 540 430C540 432.209 542.239 434 545 434Z" fill="#141413"/>
                <path d="M435 820C441.377 814.132 448.611 812.563 456.699 815.295C463.763 819.109 465.473 823.807 461.83 829.39" stroke="#141413" stroke-width="4" stroke-linecap="round"/>
                <path d="M435 820C428.623 825.868 421.389 827.437 413.301 824.705C406.237 820.891 404.527 816.193 408.17 810.61" stroke="#141413" stroke-width="4" stroke-linecap="round"/>
                <path d="M436.71 824.698C439.305 823.754 440.643 820.885 439.698 818.29C438.754 815.695 435.885 814.357 433.29 815.301C430.695 816.246 429.357 819.115 430.301 821.71C431.246 824.305 434.115 825.643 436.71 824.698Z" fill="#141413" stroke="#141413" stroke-linecap="round"/>
                <path d="M551.477 811.376L578.523 818.623" stroke="#141413" stroke-width="5" stroke-linecap="round"/>
                <path d="M578.523 818.623C585.653 817.773 591.368 814.473 595.669 808.724" stroke="#141413" stroke-width="3.5" stroke-linecap="round"/>
                <path d="M551.477 811.377C544.347 812.227 538.632 815.527 534.331 821.276" stroke="#141413" stroke-width="3.5" stroke-linecap="round"/>
                <path d="M563.965 818.864C566.099 819.435 568.292 818.169 568.864 816.035C569.436 813.901 568.169 811.708 566.036 811.136C563.902 810.564 561.708 811.831 561.137 813.965C560.565 816.099 561.831 818.292 563.965 818.864Z" fill="#141413" stroke="#141413" stroke-linecap="round"/>
                <path d="M500.487 773.466C513.613 771.621 524.036 768.574 523.767 766.66C523.498 764.746 512.639 764.689 499.513 766.534C486.387 768.379 475.965 771.426 476.234 773.34C476.503 775.254 487.361 775.311 500.487 773.466Z" fill="#141413" stroke="#141413" stroke-linecap="round"/>
                <path d="M500.835 775.942C504.116 775.48 506.403 772.446 505.941 769.165C505.48 765.884 502.446 763.597 499.165 764.058C495.883 764.52 493.597 767.554 494.058 770.835C494.519 774.117 497.553 776.403 500.835 775.942Z" fill="#141413" stroke="#141413" stroke-linecap="round"/>
                <path d="M498.876 850.782C509.118 854.919 517.923 857.028 518.544 855.492C519.164 853.956 511.365 849.356 501.124 845.219C490.882 841.081 482.077 838.972 481.456 840.508C480.836 842.044 488.635 846.644 498.876 850.782Z" fill="#141413" stroke="#141413" stroke-linecap="round"/>
                <path d="M497.94 853.1C500.5 854.134 503.498 852.69 504.636 849.873C505.774 847.057 504.621 843.935 502.06 842.901C499.5 841.866 496.502 843.311 495.364 846.127C494.226 848.943 495.379 852.065 497.94 853.1Z" fill="#141413" stroke="#141413" stroke-linecap="round"/>
                <path d="M457.5 779.33C460.848 781.263 464.682 780.892 466.062 778.5C467.443 776.109 465.848 772.603 462.5 770.67C459.152 768.737 455.319 769.109 453.938 771.5C452.557 773.892 454.152 777.397 457.5 779.33Z" fill="#141413" stroke="#141413" stroke-linecap="round"/>
                <circle cx="505" cy="735" r="2.5" fill="#141413" stroke="#141413" stroke-linecap="round"/>
                <circle cx="545" cy="775" r="2.5" fill="#141413" stroke="#141413" stroke-linecap="round"/>
                <circle cx="400" cy="845" r="2.5" fill="#141413" stroke="#141413" stroke-linecap="round"/>
                <circle cx="595" cy="850" r="2.5" fill="#141413" stroke="#141413" stroke-linecap="round"/>
                <path d="M507.132 534.969C507.358 535.241 509.152 539.101 509.225 539.544C510.602 547.408 505.836 559.349 498.081 562.421C494.557 563.816 492.183 563.028 488.822 561.433C483.83 559.059 481.927 556.142 482.09 550.407C482.145 548.677 484.147 541.375 484.89 539.762C487.599 533.882 493.379 531.771 499.612 531.835C501.089 532.849 506.407 534.109 507.132 534.96V534.969Z" fill="#141413"/>
                <path d="M507.132 589.328C507.358 589.6 509.152 593.459 509.225 593.903C510.602 601.767 505.836 613.708 498.081 616.779C494.557 618.175 492.183 617.386 488.822 615.792C483.83 613.418 481.927 610.501 482.09 604.766C482.145 603.036 484.147 595.733 484.89 594.121C487.599 588.241 493.379 586.13 499.612 586.194C501.089 587.208 506.407 588.467 507.132 589.319V589.328Z" fill="#141413"/>
              </svg>